<svg width="120" height="37" viewBox="0 0 120 37" fill="none" xmlns="http://www.w3.org/2000/svg">
<path d="M5 12.94C5 11.67 5.22 10.58 5.65 9.67998C6.08 8.76998 6.68 8.02998 7.42 7.43999C8.17 6.85999 9.04 6.42999 10.05 6.14999C11.06 5.87999 12.13 5.73999 13.28 5.73999C15.12 5.73999 16.47 5.97999 17.34 6.46999C18.21 6.94999 18.65 7.77998 18.65 8.94998C18.65 9.44998 18.54 9.89998 18.33 10.29C18.12 10.69 17.89 10.99 17.64 11.18C17.17 11.06 16.68 10.95 16.17 10.86C15.66 10.77 15.07 10.73 14.4 10.73C13.33 10.73 12.5 10.91 11.9 11.27C11.3 11.63 11.01 12.26 11.01 13.15V14.34H17.13C17.28 14.61 17.42 14.96 17.56 15.37C17.7 15.78 17.77 16.23 17.77 16.73C17.77 17.6 17.58 18.23 17.19 18.61C16.8 19 16.29 19.19 15.64 19.19H11.35V31.0099C11.1 31.0799 10.71 31.1599 10.18 31.2299C9.65 31.2999 9.09 31.3399 8.52 31.3399C7.97 31.3399 7.48 31.2999 7.05 31.2299C6.61 31.1599 6.25 31.0099 5.95 30.7799C5.65 30.5599 5.42 30.2499 5.26 29.8699C5.08 29.4999 5 28.9999 5 28.3799V12.94Z" fill="#363636"/>
<path d="M27.69 12.08C29.03 12.08 30.26 12.22 31.36 12.49C32.47 12.76 33.41 13.18 34.19 13.74C34.97 14.3 35.58 15.01 36 15.87C36.42 16.73 36.63 17.74 36.63 18.91V27.26C36.63 27.91 36.45 28.43 36.09 28.84C35.73 29.25 35.3 29.6 34.8 29.9C33.18 30.87 30.91 31.35 27.98 31.35C26.66 31.35 25.48 31.23 24.42 30.98C23.36 30.73 22.46 30.36 21.7 29.86C20.94 29.36 20.36 28.73 19.95 27.96C19.54 27.19 19.33 26.29 19.33 25.28C19.33 23.56 19.84 22.25 20.86 21.33C21.88 20.41 23.46 19.84 25.6 19.61L30.49 19.09V18.83C30.49 18.11 30.17 17.59 29.54 17.28C28.91 16.97 27.99 16.81 26.8 16.81C25.85 16.81 24.94 16.91 24.04 17.11C23.15 17.31 22.34 17.56 21.62 17.86C21.3 17.64 21.02 17.29 20.8 16.83C20.58 16.37 20.46 15.89 20.46 15.39C20.46 14.74 20.62 14.23 20.93 13.84C21.24 13.45 21.72 13.13 22.37 12.85C23.09 12.58 23.94 12.38 24.92 12.25C25.9 12.14 26.82 12.08 27.69 12.08ZM27.99 26.74C28.41 26.74 28.88 26.7 29.39 26.61C29.9 26.52 30.28 26.4 30.53 26.26V23.28L27.85 23.5C27.15 23.55 26.58 23.7 26.13 23.95C25.68 24.2 25.46 24.57 25.46 25.07C25.46 25.57 25.65 25.97 26.04 26.28C26.42 26.58 27.07 26.74 27.99 26.74Z" fill="#363636"/>
<path d="M50.74 17.08C50.12 17.08 49.53 17.18 48.97 17.38C48.41 17.58 47.93 17.87 47.52 18.26C47.11 18.65 46.78 19.12 46.53 19.7C46.28 20.27 46.16 20.94 46.16 21.71C46.16 23.25 46.6 24.41 47.48 25.18C48.36 25.95 49.44 26.34 50.71 26.34C51.46 26.34 52.1 26.25 52.65 26.08C53.2 25.91 53.68 25.72 54.1 25.52C54.6 25.87 54.97 26.25 55.22 26.66C55.47 27.07 55.59 27.56 55.59 28.13C55.59 29.15 55.11 29.94 54.14 30.5C53.17 31.06 51.83 31.34 50.11 31.34C48.54 31.34 47.13 31.11 45.86 30.65C44.59 30.19 43.5 29.54 42.6 28.71C41.69 27.88 40.99 26.88 40.49 25.71C39.99 24.54 39.74 23.25 39.74 21.83C39.74 20.19 40.01 18.75 40.54 17.52C41.07 16.29 41.8 15.28 42.72 14.48C43.64 13.68 44.7 13.09 45.91 12.69C47.12 12.29 48.39 12.09 49.73 12.09C51.52 12.09 52.9 12.41 53.87 13.06C54.84 13.71 55.32 14.54 55.32 15.56C55.32 16.03 55.21 16.47 54.98 16.88C54.76 17.29 54.5 17.64 54.2 17.94C53.78 17.74 53.27 17.55 52.67 17.36C52.08 17.17 51.43 17.08 50.74 17.08Z" fill="#363636"/>
<path d="M67.78 31.36C66.31 31.36 64.95 31.15 63.7 30.74C62.44 30.33 61.35 29.71 60.42 28.89C59.49 28.07 58.75 27.04 58.22 25.79C57.69 24.55 57.42 23.09 57.42 21.43C57.42 19.79 57.69 18.38 58.22 17.2C58.75 16.02 59.46 15.05 60.33 14.29C61.2 13.53 62.19 12.97 63.31 12.61C64.43 12.25 65.57 12.07 66.74 12.07C68.06 12.07 69.26 12.27 70.34 12.67C71.42 13.07 72.35 13.62 73.14 14.31C73.92 15.01 74.53 15.84 74.97 16.81C75.4 17.78 75.62 18.84 75.62 19.98C75.62 20.83 75.38 21.47 74.91 21.92C74.44 22.37 73.78 22.65 72.93 22.78L63.72 24.16C63.99 24.98 64.55 25.6 65.4 26.01C66.25 26.42 67.21 26.63 68.31 26.63C69.33 26.63 70.29 26.5 71.2 26.24C72.11 25.98 72.85 25.67 73.42 25.33C73.82 25.58 74.15 25.93 74.43 26.37C74.7 26.82 74.84 27.29 74.84 27.79C74.84 28.91 74.32 29.74 73.27 30.29C72.47 30.71 71.58 31 70.59 31.15C69.58 31.28 68.65 31.36 67.78 31.36ZM66.74 16.7C66.14 16.7 65.63 16.8 65.19 17C64.75 17.2 64.4 17.45 64.13 17.76C63.86 18.07 63.65 18.42 63.51 18.8C63.37 19.19 63.29 19.58 63.27 19.97L69.65 18.93C69.58 18.43 69.3 17.94 68.83 17.44C68.35 16.95 67.66 16.7 66.74 16.7Z" fill="#363636"/>
<path d="M109.89 2.56999H88.44C85.63 2.56999 83.33 4.86999 83.33 7.67999V29.13C83.33 31.94 85.63 34.24 88.44 34.24H109.89C112.7 34.24 115 31.94 115 29.13V7.66999C115 4.85999 112.7 2.56999 109.89 2.56999ZM94.97 30.14C94.72 30.19 94.36 30.25 93.87 30.33C93.38 30.41 92.89 30.45 92.4 30.45C91.9 30.45 91.46 30.42 91.06 30.35C90.67 30.28 90.33 30.15 90.06 29.94C89.79 29.74 89.58 29.46 89.43 29.11C89.28 28.76 89.21 28.3 89.21 27.74V13.97C89.46 13.92 89.82 13.86 90.31 13.78C90.79 13.7 91.29 13.66 91.78 13.66C92.28 13.66 92.72 13.69 93.12 13.76C93.51 13.83 93.85 13.96 94.12 14.17C94.39 14.37 94.6 14.65 94.75 15C94.9 15.35 94.97 15.81 94.97 16.37V30.14ZM94.38 11.33C93.8 11.92 93.04 12.21 92.1 12.21C91.16 12.21 90.39 11.92 89.82 11.33C89.24 10.74 88.96 10.02 88.96 9.15999C88.96 8.29999 89.25 7.57999 89.82 6.98999C90.4 6.39999 91.16 6.10999 92.1 6.10999C93.04 6.10999 93.81 6.39999 94.38 6.98999C94.96 7.57999 95.24 8.29999 95.24 9.15999C95.24 10.02 94.95 10.74 94.38 11.33ZM104.93 25.78C105.3 26.03 105.83 26.15 106.5 26.15C106.84 26.15 107.19 26.12 107.55 26.07C107.91 26.01 108.23 25.94 108.5 25.85C108.7 26.1 108.88 26.37 109.02 26.68C109.17 26.98 109.24 27.35 109.24 27.78C109.24 28.64 108.92 29.34 108.28 29.88C107.64 30.42 106.5 30.69 104.88 30.69C102.9 30.69 101.37 30.24 100.3 29.34C99.23 28.44 98.69 26.97 98.69 24.94V10.45C98.94 10.38 99.29 10.31 99.76 10.23C100.22 10.15 100.71 10.11 101.23 10.11C102.22 10.11 102.99 10.28 103.55 10.63C104.1 10.98 104.38 11.72 104.38 12.85V15.02H108.81C108.95 15.27 109.08 15.58 109.2 15.95C109.32 16.32 109.39 16.73 109.39 17.18C109.39 17.97 109.22 18.54 108.87 18.89C108.52 19.24 108.05 19.41 107.47 19.41H104.39V24.52C104.37 25.11 104.56 25.53 104.93 25.78Z" fill="#03A473"/>
</svg>
